# xmcd
#
# Track frame offsets: 
#        150
#        17625
#        29901
#        47119
#        65347
#        72984
#        87690
#        121617
#        135707
#        160701
#        173449
#
# Disc length: 2455 seconds
#
# Revision: 12
# Processed by: cddbd v1.5.2PL0 Copyright (c) Steve Scherf et al.
# Submitted via: ExactAudioCopyFreeDBPlugin 1.0
#
DISCID=9109950b
DTITLE=Marvin Gaye - What's Going On
DYEAR=1971
DGENRE=Soul
TTITLE0=What's Going On
TTITLE1=What's Happening Brother
TTITLE2=Flyin' High (in the Friendly Sky)
TTITLE3=Save the Children
TTITLE4=God is Love
TTITLE5=Mercy Mercy Me (The Ecology)
TTITLE6=Right On
TTITLE7=Wholy Holy
TTITLE8=Inner City Blues (Make Me Wanna Holler)
TTITLE9=God is Love (B-side)
TTITLE10=Sad Tomorrows
EXTD=
EXTT0=
EXTT1=
EXTT2=
EXTT3=
EXTT4=
EXTT5=
EXTT6=
EXTT7=
EXTT8=
EXTT9=
EXTT10=
PLAYORDER=
